<svg xmlns="http://www.w3.org/2000/svg" width="256" height="256" viewBox="0 0 256 256">
    <g>
        <path d="M335.7,63.4q-20.4-45.6-40.4-91.1c-.7-1.6-.7-2.7-3.3-1.4-39.9,18.2-78.2,41.3-121.7,49.9-19,1.9-34.5,12.4-46.6,27-4.5,6.3-8.4,13.5-17.2,15-13,3.8-19.6,17.4-30.8,24.5-7.6,5.6-16.4,9.2-24.1,14.6-5.3,3.8-10.6,7.6-16.8,9.7-3.5,1.2-6.2,3.5-9.1,5.7-8.1,6.3-13,15.4-19,23.4-3.3,4.5-8.2,8.1-10.1,13.4s-8.1,9.5-9.9,15.6a25.1,25.1,0,0,1-8.5,12.5c-7,5.9-12.2,13.8-20,19-.6.4-.4.8-.1,1.3,13.4,29.9,27.4,59.6,40.6,89.7-.9-1.6-1.8-3.3-2.8-4.8,9.9,19.8,19.1,40.4,28.8,60.3.1-.2.4-.5.3-.6s.4-.9.9-1.1l4.6-2.1c6.2-3.1,9.5-9,13.5-14.1s6.7-10.3,6.4-17c6.9-13.5,18.1-25.5,22-40.2.1-1.5-1.9-2.3-.8-4.3,3.9-7.2,7.3-14.7,11.3-21.9,6.2-13.2,6.1-9.1,16.6-15.7,2.5-3.4,6-5.7,9.5-7.9,12.8-7.8,17.4-23.6,25.6-35.5,2.7-4.6,2.4-10.3,5.8-14.7s5-8.9,7.7-12.9c7.5-2.3,14.7.9,22,1.6,3.8.3,6.9,4.1,12,4.1,25.8-14.4,46.2-38.5,74.4-50.6,9.9-4.5,17.7-12.8,27.1-18.5C299.9,85.3,321.5,75.2,335.7,63.4ZM283,36.9c-29.5,25.4-39,42.2-80.3,46.2C242.4,50.9,227.2,48,284,36.2Z" fill="#020202"/> <path d="M155.3,151.4c1.6-2.1,3.9-3.8,5.1-6.1-2.4,1.7-4.1,4.2-6.5,5.8,1-1.8,2.1-3.6,3.2-5.4-.3-7.7,3.8-15.1,1.6-22.9-.6-1.1.9-1.8,1.7-1s2.5,3.6,3,5.8c.2.4-.8,6.1.5,4.6s-.4,4.3-.8,5.1c4.1-5.7,6.6-12.8,8.4-19.6,1-1.8,4.1-2.2,3.7-4.5,2.1-3.3,5-6.2,3.5-10.4,0-.6-.6-.4-.3,0s-.3,5.7-1.4,2.9c0,1.9.1,2.7-2,3.4-3.7,1.2-8.5,6.6-12.3,3.3s-3.6-8.1-3.7-12c-2.2,2.9-1.1,6.3-1.8,9.3-.4.4,0,1,.1,1.4s2.5,3.8.2,3.6c-9.3-5.2-20.9,5.7-16.3-12.4-.8,1.5-.6,4.6-2.6,4.9s0-1.2.1-1.9c-1.3,2.3-1.5,6.8-5.1,6-1.7-1.9-.5-5.6-.4-8.1-.4,1.8-1.3,4.3-.7,6.4a1.9,1.9,0,0,1-.3,1.9c-4.4.6-5.3,0-5.3-4.5-.2.6.3,1.9-.5,2.1s-.5-3.1-.2-4.2c-1.5-6.4,25.8-4,30.9-7.1,7.5-3.6,15.5-1.9,23.3-2.8,1.4-1.1-4.3-1.7-1.4-3.3,13.3-7.9,29.6-8.3,44.6-9.9.9-.1,1.3.3.9,1.2-1.7,3,1,6,2,8.7C224,78.9,238,81.8,244.8,75.5,259,66,270.2,53,281.3,40.1a196.2,196.2,0,0,1,31.4-24.5c7,11,11.6,26.7,17.9,39.3-18,14.9-38.9,26.9-58.1,40.6-2.5,2-6.1,4.9-9.2,4.3,20.8-15.1,43.2-30.8,62.2-48.9-20.8,12-40,26.9-59.3,41.4-11.9,9.5-17.1,13-24.3-3.5-.5,4.3-2.2,9-6.6,10.5.4-.1,1,0,1.1.4s-.2,3.6-.7,5.3.2,4.3.9,6.4-2.8-.5-3-1.7c.2,1.9,4.3,5.3,1.5,6.3-10.6,3.6-19.7,10-29.1,15.9-15.6,9.5-29,24.5-48.8,22.9C154.8,155.8,153.6,153,155.3,151.4Z" fill="#ffe0d1"/> <path d="M122,154c.5,2.7-.6,5.6.8,8.3.3-1.2-.7-2.9-.1-3.8,1.6-3-.5-6.4,1.4-9.2.3,1.5.3,3.1,1.4,4.3a16.8,16.8,0,0,1,.1-5,10.2,10.2,0,0,0,1.4,2.2,16.2,16.2,0,0,0-.2-3.1,24.3,24.3,0,0,0,1.4,2c-.3-1.2.9-.2,1-.6s-1.8-2.3-2.6-3.5,0-.3.1-.3,1.7-4.9,3.2-.4c.4,1,.6,2.2,1.9,2.6-6-8.5.5-9.7,4.5-14.7,2.1-.3,3.1,3.1,4.3,4.5-.1-1.2-1.3-2.2-1.1-3.3s0-1.5-.5-2.1-.7-1,0-1.3,2.1,5,4.7,5.8c-1.3-.2-6-7.6-3-6.4a28,28,0,0,0,5.6,5.8c-2.1-2-4.3-3.6-5.5-6.3s2.9-.5,3.3.6c-4.9-4.8,3.8-3.4,4.5.2,2.5,4,.5,5.1-1.6.9.1,2.8,3.5,3.9,3.7,6.4-.6,6.2-1.7,12.3-4.9,17.8a10.8,10.8,0,0,1-4.5,4.5c-.7.4-1.1.7-.3,1.3,1,3.9-3.7,9.9-5,13.9s-3.7,1.7-4.7,3.2l2.9.6c-1.5,1.8-4,1.7-6.1,1.9l3.6.4c.1,4.9-2.5,10.5-5.1,14.5a1,1,0,0,0-1.3.6c-2.6,5.9-9.2,7.2-14.7,8.9,3.8-1.5,8.3-1.9,11.5-4.7.3-.3.9-.6,1.3-.2s-2.3,5.5-4.2,4.8c-.3,0-.7,0-.6.5l1.2.5c.8,1.7-6.3,10.9-7,6.5-.2-.7-.3-.3-.5-.1-1.8,1.5-1.8-2.6-2-3.6a23.9,23.9,0,0,0,.9,4.5c-1,.5-1.8,3.6-3.2,1.9s-3.7-5.3-3.6-8.7a15.9,15.9,0,0,0,1.9,7.6,3.5,3.5,0,0,1-3,5.1c-1.5-.3-1.2-2.9-2.6-3.6,1.2,2.4,1.8,7.4-2.2,7.3-2.1-.6-1.2-8.3-4.4-11.6,1.5,2.4,6.2,12.9,1,12.7-2.9,3-7.7,4.2-10.5,7.6-1.4,1.4-1.9.4-1.1-1C79.1,239.6,72,247,67,255.6c-1,1.6-1.8,1.8-3.8.9s-.6-3.4-.4-5.1,3.8-4.7,3.7-8,5.2-5.4,3.9-9.7c-.5-1.7-.3-3.8-.8-5.4-2.2,3.1-4.2,6.9-4.6,10.8s-3.3,6.8-4.1,10.6c-.9,1.5-.9,5-3.1,4.8s-6.7-2.4-4.2-4.4c.9-.8,7.2-4.3,4.6-5.1-6.7,1.1,7.3-16.6,6.3-22.2-3.2,6-7.5,12.7-14.3,14.8-5,.5-12.8-1-13.4-6.9.4-.5.8-.2,1.2-.1s5,0,3.4-1.1c-15.1-7,3.3-13.1,7.6-20-1.2.8-2.9.7-3.6,2.3a1,1,0,0,1-1.2.4c-1.8-.6-5-.5-5.8-2.2,4.8-8.8,12.1-15.8,16.9-24.5a188.5,188.5,0,0,0,16.3-40.1c2.4-8.5,6.3-15.7,14.9-19.7,5.5-2.5,9.3-7.4,13.9-11.2s6.5-.5,9.9,1.5c-.2-2.3-3.7-3.2-5.5-4.4a12,12,0,0,1,3.8.3l-1.3-.7c0-1.3,2.4-1.5,2.6-.2-.2,3.1,6.5,5.8,3.2,7.2s-10.4,3.6-15.5,5.6c.4,0,3.8-.6,4.2-.5-2.4,1.1-5.4,2-6.8,4.4,2.1-1,4-2.4,6.3-3.1a19.3,19.3,0,0,0-2.7,3c5.7-3.9,12.3-6.4,18.6-9.2.6-.3,1.4-1,2-.3s-1,1.5-1.1,2.2c2.4-.8,5.6,1.1,7.6,2.4-2.6,3.1-7.1,4.9-10.2,7.7-1.2,1-3.9,1.3-5.3,1.6s.6.2.9.3,1,.6.4,1.1c-4.9,3.1-10.9,4.5-15.5,8.4a72.1,72.1,0,0,1,12.7-4.8c.9-.6,1.7-1.6,2.8-1.8a5.1,5.1,0,0,0-.7,1.7,27.8,27.8,0,0,1,3.2-2.6c.7,6.2-2.5,12.2-5.6,17.5,2.1-4.9,9.1-11,6.5-16.3l.6-1.4c.3-.1.5.1.6.4s1.2-2.1,2.5-1.7c2.4-3.5,6.2-4.1,8.5-7.7.7.4.9,1.2,1.3,1.7-3.7-4.4,9.6-5.9,10.1-2.2.3.7.6,1.5-.5,1.7a68.3,68.3,0,0,1-7.2,8.9c-.5.5-.4,1.6-1.4,1.5-.7,9.1-12.1,10.2-17.5,15.7.7-.4,1.6-1.7,2.4-1s-.5,1-.7,1.6c-8.7,10.6-10,25.5-17.3,37.1,10.6-12,14.3-27.9,23.2-40.8.3-.6.7-1.6,1.6-.6-2.2,3.8-1.7,8-3.1,11.9C118.7,159,122.2,145.9,122,154Z" fill="#ecb7a5"/> <path d="M200,71.8c1-5.2-1.5-8.3-6.9-8.4-.9,0-.7-.2-.4-.8,2.7-4.9,8.1-6.9,13.2-7.8.6-.2,1.4-.4,1.3-1.2s-3.1-1.3-4.5-1.1c-5.4-.4,4.8-5,5.8-5.7-12.7,2.9,2.5-2.4-5-12.8-2.9-8.4-2.9,5.6-7.5,4.7-7.4,3.4-14.8,4.6-22.7,1.8-1.1-.2-1.2-1-1-2s-.9,1.3-1.7.7,1.6-5.8-.5-6.1c-1.1,5.3-4.8,6.6-9.7,5.4s-1.4-5.3-3.7-7.3c-.9,3.9-2.2-.5-3,1.4s-.8.1-1.3,0,2.6,2.8.7,4.1c0,2,.5,4-.3,5.9l-.4-1.6c-7.1,4.3-8.5,14.3-14.3,4.7.8.6-.4,1.4.3,2s.5,2,.8,2.5l-.9-.7c-.8,3.9-2.4,7.3-6.3,9.2s-14,8.3-17.9,3.8c6-2.2,7.6-17.5,13.9-15.4.2.2.7-.1,1-.3a2.5,2.5,0,0,0-2.4-1.2c1,0,2-.2,3-.1s-1.9-.4-1.7-1.2,2.4-.2,3.5,0c-.7-1.1-3-.7-1.3-2,9.8-10.3,21.4-17.9,35.8-19.5,11.8-3.3,24.5-2.7,35.6-8.2,7-3.2,13.9-6.9,21.2-9.3,23.9-9.7,46.5-23,71.6-29.8.6-.2,1.2-.4,1.7.1l14.8,34c-9.5,6.2-19.6,12.4-29.6,17.9C267,34.9,250.7,36.7,236.6,44c-2.4,1.7-1.8-1.1-2.4-2.6s-.5.3-1-.1c3.6,9.7-13.5,8.1-9.6,9.8.3.2.7.4.6.7-.6,2.4,4.7.9,2.3,3.5-6.9,8.1-14,16.2-23.7,21.2C194.9,81.2,198.9,76.6,200,71.8Z" fill="#ffe0d1"/> <path d="M-9.6,240.3c-11.3-13.5-22.5-13.6-29.3-32.5-1.9-4.1-2-6.2,2-9,7.9-5.4,12.6-14.2,20.3-19.7.3,2.3-.3,4.7.9,6.9a35.4,35.4,0,0,1,8.6-23.6c.8.2.7.8.7,1.3.1,5.3,1.9,10.3,3,15.4,1.2,3.5,5.8,13.9,9.9,13.2,1.3-.8.6-2.1.1-3.2-5-12-17.5-27-5.9-38.9,8.6-9.2,14.1-20.9,23.1-29.7.1,4.5-2.3,9.6-1.9,14.5-.2,14.2,10.1,26.7,21.9,33.7,1.9,1,2,1.2,1.4,3.2s-3.5,16.7-7.5,13.3c-11.9-6.7-18-19.4-26-29.7.4,1.7,6,11.7,4.4,11.5-2.9-2.5-7.3-12-11-11.2-1.5.8-1.4,2.5-.9,3.9,5.6,14.7,20.7,22,31.8,32.2-1.9,7.9-14.9-5.9-18.2-8.1,3.9,4.8,8.1,9.4,13.5,12.5a1.3,1.3,0,0,1,.3,1.8c-2.8,5.8-16.6-9.3-19.7-11.8-6.3-6.2-10.8-14.1-14.1-22.2,4.5,15.5,14.3,29.1,29.2,36.2,1.5.8,1.6,1.2.5,2.6s-3.8,6.5-6.9,4.7c-5.4-2.8-9.9-6.9-14.6-10.6,1.4,4.3,10.3,9.7,14.4,12.7a2.3,2.3,0,0,1-2.2,2.6C7.8,209,1.4,201-4.4,192.5c3.7,9.6,11.7,17,21.4,20.9-1.3,9.5-19.9-11.7-21.2-7,4.6,5.1,7.6,11.4,12.4,16.3.3,2.5-3.6,4-5.1,5.7-5.6-3.6-7.5-13.2-13.5-17.4,3.3,6.1,12.1,16.2,7.8,23C-5.1,235.6-6.9,240.1-9.6,240.3Z" fill="#96afc2"/> <path d="M242.9,90c2.2,4.4,6.8,13,12.8,9.1,23.6-16.4,45.7-35.6,71.1-49.1-19.2,18.7-41.1,34.9-63.3,49.8,1.3,0,2.4-.7,3.7-1-5.7,5.2-15.2,11.7-23.6,10.8,10.5,1.2,18.9-7.5,27.1-12.8,19.2-14.8,40.6-27.1,59.9-41.9.3,2.2,5.3,8.7,3.1,9.7-20.9,12.5-41.9,24.8-62,38.4-8.1,5.4-15.4,12-24.5,15.8-21,8.5-35.4,26.5-54.1,38.5a21.8,21.8,0,0,1,2.2-2.1c-6,1.7-13.1,15.6-18.9,6.7l-.2,1.1c-2.1-.4-4-1.6-5.9-2.5a60.8,60.8,0,0,0,7.8-3.6c-6.1,1.8-12.1,5-18.1.8-.3.7-.8,1-1.9.8-3.4-.7-6.7-.1-10,.4a16.5,16.5,0,0,1,7.2-7.6c-1.7,4.9,2,2.8,3.7,2.9,14.5,1.1,26.1-7.9,36.8-16.3s23.1-15.6,35.9-21.1c6.5-2.2,1.8-3.8,1.6-8.4A9.5,9.5,0,0,0,236,112c.8-.7-.2-1.2-.4-1.8a9.9,9.9,0,0,1-.3-5.9c.4-1.6-.7-3.4.7-4.8s2.4-1.4,2.5-3c2.3-2.6,2.7-6.1,3.1-9.2l.6,1c.7,4.2-1.3,8.6-4.6,11.4C241,97.5,241.9,93.5,242.9,90Z" fill="#ecaaa4"/> <path d="M88.3,109.6c2,.5,5-1.4,6.1,1.2,2.5,4.3.5,3.8-3.1,4.1-.3.2-.5.4-.8.4,6.8,0-6.1,6.3-7.4,7.6-4.7,3.7-7-11.2-7.8-7.6s3.2,11.3-3.2,6.2c2.9,5.7,3.6,6.5-.9,11.7-3.4,3-10.7-6.7-12.5-9.5-1.4-1.2-1.7-10-2.1-7.6s-1.5,1.2-1.6.2c-.8-3.4-2.3-7.8.5-10.6,7.3-5.7,13.9-13.3,22.3-17.2C91,81.2,90.4,73,92.9,83.5c-.3-4.8.2-9,3.8-12.5s6-7.2,10.3-6.4c1.8,0,3.7,0,4.7,1.8,6.2,7.9,15.3-.8,22.1-1.9,5.4,2.4,18.7,1.8,13.4,10.9,2.1-1.3.6-5.8,3.1-6.3a8,8,0,0,0-.9,3c.8-1.1,1.2-3,3-2.8s1.3.5.7,1.4c4-1.1,8.1,2.5,11.9,3.8,1,.9-2.3,3.1-2.9,4.2s.8-.8,1.2-.9,1.9-3.3,4.2-3c.2,1-1.7,1.4-.6,2.5s-1.3,1.9-1.9,2.8c2-1.2,1.5-4.4,3.4-4.9s.6,1.6.4,2.6c.3-.6-.1-2,1-1.9s8.2,2.8,5,5c-1,1.1.3,3-1.6,3.1.8,1.2,8.7,3.7,6.6,5s-7.4,3.1-11.1,1.4v.7a10.6,10.6,0,0,1-7.4-4.2c-.8.7-.7,1.8-.9,2.8a23.3,23.3,0,0,1-.4-3.8l-.6.9c-1.8.6-.9-2.6-2-3s.7,3.8-2.1,3.4-5.4-3.7-6.4-6.7c-.1-.3-.1-.8-.7-.6s-1,.4-1.4-.2-.2-2.1,1.3-3c-1.2,1.1-4.1,1.4-4.3-.6,1.4-.7,3-1.6,3.1-3.4-.8.9-1.3,2.2-2.5,2.8s-1.6-.1-2.4-.3a7.8,7.8,0,0,1,1.4-6.7c-2.5,1.4-2.5,4.4-2.9,6.8l-1.3-3a16.7,16.7,0,0,0,.6,3.8c-4.2-1.4-4.5.6-6.8-5.1-1.1.1.3,2.5-1.3,1.6s0,2.1-2,.9c-2.7-2.9-6.4-2.2-9.4-.2s-.5,4.6-1,6.9c-1.5-1.9-2.1-4.4-3.5-6.4.1,1.8,1,3.4,1.5,5-1.2-1.1-2.1-2.5-3.6-3.2l2.1,2.8a13.3,13.3,0,0,0-3.3-1.3l1.7,1.5c-2.9-.1-5.2,1.6-7.7,2.9-.5,2.8,2.5,10.2,1,11.1-4.4.8-5.6-6.7-6.4-10-1.4,1.7,3.4,10.4-.1,7.8-.6-.4-.7-1.5-1.6-1.5,1,3.5,3.8,5.8,6.1,8.4-4.2-.9-7.8-3.7-11.7-5.2,2.1,2,5.1,3.2,7.6,4.8-2.5.6-5.1-.3-7.7,0,2.8.9,5.8.6,8.7.9-3.8,1.2-8.2.8-12.1,1.9,1.2,1.2,4.7.1,4.3,2.4C94.3,107.6,92.1,106.9,88.3,109.6Z" fill="#ecb7a5"/> <path d="M64.5,224.1c0,3.5-2.3,6.7-4,9.6.2-.2.5-.7.9-.5-.4,2.6-9.1,13.1-1.9,11.2.7,3.8-8.6,6-5.4,7.6s4.5,2.5,6.6-2.5c3.4-7.3,3.8-16.3,9.5-22.4-.6,3.5,2.4,7.6.1,10.4s-2.9,8.8-6.5,12.1c-2,1.8-1.2,6.4.9,6.9a1.3,1.3,0,0,0,1.7-.7c5.6-9.1,12.4-17.6,18-26.7a10.2,10.2,0,0,1-1.1,2.9c3.5-2.9,7.1-5.9,11.5-7.3-.1,1.5.5,3.3,0,4.7-2.9-2.3-4.8,6.8-5.5.9a5.6,5.6,0,0,1-1.5,4.9c-7.1,10.4-11.7,23.6-17.7,33.9-.6-1.6-4.6-.6-3.2-3.6,4.4-9.7,10.2-18.8,15.6-28A143.3,143.3,0,0,0,66,265.8c-.3.7-.6.7-1.2.5a100.3,100.3,0,0,1-15.2-8c-1.4-3.1,4.4-9.3,6.4-11.9-3.4,1.6-5.1,5.4-7.2,8.4a31.6,31.6,0,0,1,.3-3.2c-1.4,4.1-1,6.2-5.2,2.7C37.6,249,31.1,244,24.7,239c-.7-.6-.5-.9,0-1.4,2.8-3.4,5.3-7.4,6.1-11.8-1.5,2.2-5.8,12.6-8.5,11.4s-11.2-4.2-6.5-7.5c7.4-6.7,16.9-11.3,22.7-19.7,1.2,0,7.7,3.4,6.6,1-.4-.5-.1-.8.4-.7s2.8-1.4,4.5-1.8c-5,8.4-20,10.9-18.2,23-.2-3.2,1-8.3,4.2-9.6,0,4.1,3.2,6.9,7,7.7-1,2-4,1.8-5.9,1.4,2.3,6.1,8.2,6.5,13.5,6.3-1.9,2.4-6.3,1.5-8.8.4C52,243,60.4,231.6,64.5,224.1Z" fill="#c9807c"/> <path d="M200,71.8c.2,2.4-1,4.4-1.9,6.4,11.9-4.6,20.8-14.3,28.6-24-3.9-.4-2.6-1.9-4.7-3.9,3.6-1.1,11.6-1.1,11.2-7.3,1.8,1.3.1,4.8-1.1,6.2,3-2.6.9-6.2,1.8-9.3a23.3,23.3,0,0,0,1.1,2.8c.2.5-.8,2.1.8,1.2,9-4.8,18.8-7.2,28.4-10.1,17.2-5,31.2-15.7,46.6-24.2,1.7,2.7,2.7,4.7-1.4,7-8.1,4.6-15,10.8-22.1,16.7-15,6.1-32,7.2-46.6,14.8-18.5,9.8-26.8,34.8-49,37.4-3.4,1.6-5.3-.9-8-2.4s-3.9-1.2-5.3-3C186.5,79,195.8,80.8,200,71.8Z" fill="#ecaaa4"/> <path d="M77.8,88.5C69.9,93.6,63,99.9,55.9,106c-3,2.8-1.2,7.4-.2,10.7.4-.9.9-1.6,1.4-2.5.2,9.1,4.8,14.9,12.1,19.4a.9.9,0,0,0,1.3-.1c5.5-4.5,3.2-7.6.5-12.8a19.4,19.4,0,0,1,4.2,2.5c-.2-3.2-1.6-7.1.6-9.8,3.9,13.7,7.4,9.3,16.5,2.7-1.1-.2-2.2-.1-3.1-.7,1.8-.6,6.3-.3,8.2.1-6.6,8.5-19,10.9-23.8,20.8-2.8,4.4-9.3-2.4-11.5-4.9,1.1,4.3,5.8,7,10,7.7,0,1.3-3.2.4-4,.5,1.5.8,4.7.7,2.8,2.9-.9,9.4-8.5-3.9-13.3-3.4,2.3,2.4,5.6,3.9,7.8,6.4-13.6-2.6-29.9-30.2-13.4-38.7.2.8-.9,1.4-.3,2.3.1-1,1.3-.7,1.6-1.3,5.7-11.2,17.9-15.2,27-22.2A22.6,22.6,0,0,1,77.8,88.5Z" fill="#c9807c"/> <path d="M6,197c6.8,3.8,16.3,17.1,21.7,5,.7-1.1-.7-1.1-1.2-1.3C15.1,194.5,4.6,185.2.6,172.4c1,0,1,.8,1.3,1.4,5,9.7,12.7,16.9,21.8,22.7a10.4,10.4,0,0,0,2.4,1.1c1.6.7,2.9,3.4,5,.5.7-.9.4-1.2-.4-1.6-5.9-3.3-10.2-8.5-14.3-13.7C20.6,184,33,199.3,36,191.9l1.2.7c-7.4-8.9-33-23.9-31.4-35.4.2-.2,1.4.5,1.8,1.1,5.6,7.7,12.4,14.3,19,21a58.9,58.9,0,0,0,21.3,13.8c.3.1,1.2,0,.6.8-4.4,7.7-9.3,12-17.8,6.8,3.1,2.6,6.8,4.2,10.8,2.7C39,206,35,214,31.9,214.3,21.8,210.5,13.7,204,6,197Z" fill="#587894"/> <path d="M16.1,167c-1.6-4.3-3.9-8.5-5.1-12.9,8.8,10.6,14.9,24.2,27.6,31.1,2.9.7,5.4-11.8,6.5-14.4-17.4-12.9-29.1-27-21.3-50.4l2.6-2.4c-13.3,24.1,8.3,53,34.6,50.5,1-.1.9.2.6.9A149.9,149.9,0,0,1,50,191.5c-.7,1.2-1.5.8-2.3.4-14.6-6.1-24.8-16.8-32.1-30.7.9,3.9,3.3,7.2,5.2,10.6A53.2,53.2,0,0,1,16.1,167Z" fill="#587894"/> <path d="M126.2,104.9c-.4,1.3,0,2.7.1,4a4.6,4.6,0,0,1,.8-3.4c1.1,2.1-1.4,5.3,2.3,5.8.7.1.7,0,1.2-.7s.5,1.4,1.5.9c.9-2.4-.9-6.4,1.4-8.2.2,1.6-1.2,7.3.2,7.7,3.4.7,2.9-3.3,4.7-5.4.2,1.8-.8,4-.9,5.4.4-1.1.2-2.7,1.1-3.8h.3c.6,1.8-.8,4.2-1.1,6h.1c.8-2.4.8-6,2.7-7.7-1.4,13.1,9.3,4,17.6,9-.6-1.8-2.7-3.9-1.7-5.5,1-3.4-.4-6.8,2.9-9.4-.5,3.9-.9,9.1,2.1,11.9,5.2,3.8,8.7-1.1,13-2.5,2.4-.8,2-2.2,2.1-3.8s-.3-1,.4-1.1a7,7,0,0,1,.6,2.3,5.9,5.9,0,0,0,.4-2.6c.1-.9-1-2.3.2-2.4s1.1,3.9,1.4,5.3c-2.2,3.1-4.1,6.5-7.2,8.9,1.1-.6,1.6-2.1,3-2l.4.8c-1.4,1-2.8,2.3-4.3,3.2s.3,0,.2.2c-1.7,7.5-4.5,15.3-9.7,20.9.6-2.2,1.8-4.2,2.6-6.4-.6.2-1.2.8-1.8.5l.4-.9v.5c2.2-3.4.8-8-.7-11.5a6.4,6.4,0,0,1,1.8,1c-12.2-11.7-34.9,3-49.2-6.7h0c1.1-1.3,2.5-.6,3.7-.5C125.1,115.4,124,108.8,126.2,104.9Z" fill="#ecaaa4"/> <path d="M-9.6,240.3c11.3-10.7,8.4-8.9,3.1-23.3,14.9,26.1,17.4,7.6-7.6,44-1.7-2.9-2.8-6.1-4.3-9.1.3-2.2,3.5-3.5,2.3-5.8-2.5-4.4-5.6-8.3-9.9-10.9-1.7-3.8-3.7-7.5-5.1-11.3,7.3,6.3,16.5,11.1,21.7,19.6-4.6-2.1-8.6-5.3-13.2-7.3C-19.7,239.4-.5,252.7-9.6,240.3Z" fill="#587894"/> <path d="M170.1,33.1c2.2-1.2.6,4.9.7,5.9s1.2-1.5,2.2-1.6c.3,2.1-1.6,2.3,1.3,2.9,8.7,2.5,23.6,1.5,26.4-8.8.4-1.1,1.4-.9,2-.1,4.6,5.3,4.2,9.8.8,15.7,1.6.1,5-.9,6.5-1.2-1.2,1.5-3.1,2-4.8,2.7l.7-.7c-3.9.3-7.9,1.3-11.9.6,2-1.3,4.5-1.7,6-3.8-9.2,5-19.5,5.4-29.3,2.3-1-.2-2.1.1-3-1-2.8-3.5,2-2.6,3.4-5.8L166,43.5C167.7,40.2,170.3,37,170.1,33.1Z" fill="#ecaaa4"/> <path d="M152.6,62.2l15.3,1.5c1.5.3,1.2,3.2.6,4.3,2.3-.1.1-4.8,3.5-4,.8.7.1,1.5-.2,2s-.3,3.1-1.1,4.4c.9-2,.6-4.5,2-6.4,1.4.5,14.4,0,11.9,1.8-4.1,6.7,7,7.5,10.8,4.6,3.9-1.1-1.3,5.9-3.1,6-3.4,1.2-8,2.9-11.2.6-6.1-2-12.8-2.7-18.9-5.1-15.2-6.8-9.9.1-10.5-9.5C151.9,62,152.2,62.1,152.6,62.2Z" fill="#ecb7a5"/> <path d="M141.8,132.1l-2.1-2c1.1,2.1,1.7,4.8,4,5.9.4.3,1.2.3,1.2,1.1-3.3-.8-4.3-3.9-5.8-6.5l-.3.2c1.1,2,1.4,4.3,2.1,6.5-1.4-.5-1.4-2-2.1-3s.6.7.2,1.2-1.4-2.3-2.8-2.8c1.3-2.2,2.1-.1,3.2.7-3.2-6,2.6-5.5,4.9-7.8,3.6,1.1,5.8,3.4,6.1,7.2-.5-2.3.3-4.9-1.2-6.9s-.5-.8.2-1.5-1.4-.1-1.6-.8c2.2-.9,6.9-6.9,8.2-3,3.2,9.5-.2,36-12.2,37.8a3.9,3.9,0,0,0,2,.8c-1,.7-3.4,1.2-4.5,1.5l3.6-.2a7.1,7.1,0,0,1-1.5,1.5,6.5,6.5,0,0,0,2.3-.9c-2.2,5.3-5.5,10.2-8.4,15.1-1.2,2-4,1.4-6.1,2,.1-.8.2-.9.8-1,3-.7,5.4-5.2,5.9-8.4s5-6.2,2.2-7.6c-.7-.3-.5-1,0-1.3,7.7-4.1,8.2-12.2,9.7-19.6,1.8-4.6-3.9-6.3-3.7-10.5,1.7.9,1.5,3.2,3.5,3.8.5-5.8-9.2-8.2-6.3-4.8-.7.5-1.1-.4-1.7-.3S142.9,131,141.8,132.1Z" fill="#c9807c"/> <path d="M282.7,38.7c-12.1,15.1-25.2,30.2-42.1,40-8.3,4.4-15.3.8-13.6,14.7-10.3-14.6,8-11.2-20.1-9.6,6-2,12.3-2.3,18.4-3.5C249,74.2,264.1,53.2,282.7,38.7Z" fill="#ecaaa4"/> <path d="M-4.2,206.4c.8-6.4,18.3,15.4,21.2,7,4.3,1.8,9,2.2,13.4,3a2.1,2.1,0,0,1-.4.6L17.1,227.3c-.7.6-1.1-.1-1.5-.4C6.8,222.1,3.6,211.7-4.2,206.4Z" fill="#587894"/> <path d="M180,62.2a1.2,1.2,0,0,1-1.1-1.3c-1.2-.2.2,2.2-1.9,2.1-6.4.2-12.7-.8-19-1.6-2.2-.2-4.5-1-6.6-.5-.6,0-1.3.2-1.4-.7-.5-2.5,1.6-2.3,3-2.6s16.3-5.1,14.6-.7c-.2.7-.4,2.1.7,2.1s-.2-3.4.9-4.4h.5c.5.5-.3.6-.3.8s-.6,2.8-.2,4.1c.8-.9.8-2.5,1.1-3.7s-.5-1.3.6-1.5.9,1.3,1.5,2.1c0-1.4-.6-2.5,1.2-2.2s9.2-1.8,6.9,2.2c-.5,3.5,9.5.2,10.9-1.4,2.2,4-.5,6.8-4.4,7.7C185,62.9,181.2,64.1,180,62.2Z" fill="#ecb7a5"/> <path d="M204.6,48.9c-3.4,3.8,3,1.9,3.3,4.7s-4.6,1.7-6.7,2.4a3.9,3.9,0,0,1,1-.8c-5.8.2-8.4,7.8-10.6-1.3a2,2,0,0,0-2.7-1.4c-7,2.6-14.3-.3-21.3,1.5-1,.2-.1-.6-.1-.6,2.4-2-.9-7.3,3.7-5.3C182.1,51.3,193.5,50,204.6,48.9Z" fill="#ecaaa4"/> <path d="M149.4,55.5c-1.3.4,1.4,2.1-.3,1.7s-5.5-4.2-2.2-6.1c.5-2.3,3.2-1.6,4.3-3.1a2.5,2.5,0,0,1,1.7-1c1,0,2.9-2.8,2.8.7,0,.5,3.1,1.2,0,1.4v.2a12,12,0,0,0,8.1-3.5c2.9-3,2.9-.2,3.6,1.4C168.7,55.1,154.6,56,149.4,55.5Z" fill="#ebb7a5"/> <path d="M130.8,78.9a46.9,46.9,0,0,1,4.5,10.6c.2,1.5-1.5,2.6-2.1,3.9a10.6,10.6,0,0,0,2.3-1.9,15.4,15.4,0,0,1-2.9,5.7c1.9-.8,2.6-3,3.7-4.6a14.5,14.5,0,0,0,.3,3,5.9,5.9,0,0,0,.5-1.9c.8,1,4.6,4.5,5.5,5.5-4.2.3-8.5.3-12.6,1.7-2,.6-2.9-.7-3.9-2s1.2-.8,1.7-1.2a4.1,4.1,0,0,1-2.9-.3,5.5,5.5,0,0,0,2.2-.2v-.4c-1.4.2-3.5.3-3.6-1.7s2.5-.5,3.2-.6,2,.7,2,0-4.1-.2-5.8-.6a4.6,4.6,0,0,0,1.6-.7c-1.9.4-2,0-2.3-1.6a59.5,59.5,0,0,1-1.7-8.4c1.6,1.3,1.4,2.2,3.7,1.9.1.5-.1,1.1.7,1.3s-.8,1.8.1,3c.7,5.7,6,1.4,5.4,4.3.1,1.3,2.7.9.9,2.6s.1.9.3.1-.4-2.7.6-4C134.8,88.1,129.2,83.3,130.8,78.9Z" fill="#ebaaa4"/> <path d="M39.8,252.9c-7.4,12.6-16.4,23.9-23.5,36.5-1,1.8-1.9.5-2.9.3s-.4-.2.5-1.7c7-12.3,15.3-23.8,23.3-35.4C37.7,251,39,252.1,39.8,252.9Z" fill="#95aec1"/> <path d="M130.8,78.9c2,5.9,3.3,11.2,1.6,17.2,0,.8-.3,1.7-1.3,1.4s.4-1-.1-1.4c1.3-1.1-.5-1-.5-1.2-.2-3-2.8-1.4-4-2.1s-1.1-3-2-4.4,1-.6,1.2-1.4-1.6-.8-2.5-1.2c6.4-1.8,4.3-9.9-.4-12.6C126.8,71.9,129.1,76.2,130.8,78.9Z" fill="#feded0"/> <path d="M278.8-19c-28,11.2-55.1,24.8-82.9,36.5-7,3-14.6,2.4-21.9,3.6,35-7.6,66.9-24.5,99.1-39.4C275.1-17.5,276.8-20.1,278.8-19Z" fill="#ebaaa4"/> <path d="M19.6,293.8c-.3-.9-1.8-.8-1.1-2.2,3.2-6,7.4-11.3,11.1-17,2.5-2.2,12-22,14-19,1.3,1,.8,1.4.2,2.4C35.5,269.8,27.1,281.5,19.6,293.8Z" fill="#90aabd"/> <path d="M129.3,136.7c2.5-3.9,7.4-6.9,8-11.4.3-.2.9,1.3,1,.1s-.4-2.5-2.2-2.2-8.6-1.2-7.8,2.7c-.3.4-.6-.3-.9,0l-.3-.8c2.6-1.9,3.2-4,7.2-2.9-.2-.7-2.2-.7-.9-1.5,3.7-4.5,3.5,1.4,7.3,1.8,1.2-.1-3.2-2.3-3.3-3.5a4,4,0,0,1,3.8.6c-1.2,1.6,2.2,1.1,3,1.3s-1.9-1-2.5-2.1c3.4-1.4,3,1.6,5.3,2.2l-1.7-2.6c5.4,1,5.3,2.9,1.1,4.5-5.8,3.1-10.1,8-14.4,12.9C130.2,137.8,130.1,137.7,129.3,136.7Z" fill="#c8807c"/> <path d="M110.3,80.1a7.3,7.3,0,0,1,10,5.8c.2,3.9,3.5,8.2.7,11.7l1.5-1-1,2.4c.4,3.9-5.8,1-5.5-1,1.1-.5.7-1.9,1.8-2.5s.6-1-.4-1.2-1.2-1-1.1-1.9a13,13,0,0,0-4.8-10.9C111,81.2,110.3,81,110.3,80.1Z" fill="#fddcce"/> <path d="M19.5,236.4c-9.1,12-19.3,24.9-27.6,36.5C-13.4,273.3,19,232.4,19.5,236.4Z" fill="#7592a9"/> <path d="M-2.3,279.7l-.5-.6h0c6.4-13.6,16.4-24.7,26-36,5.5-1.8-14,20-13.2,20.1C6.4,268,2.8,272.7-.3,277.7-.8,278.5-1,279.6-2.3,279.7Z" fill="#95aec1"/> <path d="M145.8,89.4l2.1-.4a10.9,10.9,0,0,1-.8,1.5c-2.5.1-3,3.3-1.2,4.6s4.6,1.1,6.2,2.6c-3.4.5-6.8,2.2-10.1-.2s0-2.1.6-3l1.1-1.5a25.5,25.5,0,0,0-3,2.6c-.2.2-.1.8-.6.5s-.4-.3-.5-.5l2.4-2c-.9-.2-1.4.6-1.9,1-2.4.9-3.7-6-5.1-7.6s-.1-.6.5-.5c6.9,0,1.3-7.4-.6-10.3,3.9,0,5.3,7,6,10.2,0,1.3,1.1,2.5,1.9,3.7S144.8,89.3,145.8,89.4Z" fill="#ebaaa4"/> <path d="M111.8,109.5c1-3.7,10-8.4,13.5-7.1,1.9,1.1-.9,4.2-.9,5.8s-1.3.4-.7-.6c-.6,2.3-.1,3.8-2.9,4.2S111.9,113.7,111.8,109.5Z" fill="#ffe0d1"/> <path d="M189.6,77c3.2-.9,6.2-2.9,6.7-6.5-3,2.1-8.9,2.7-11.7.3,5.3,1.6,10.8,1,14.1-4.3,4.6,8.6-9.5,13.3-16.8,12.8-2.6.3-5.5.2-7.6-2.1s-8.4-2.6-12.2-5.2l15.7,3.6c4.6,1.4,9.9,3.5,14.6,1.2-1.1.2-2.8,1.6-3.6.7S189.2,77,189.6,77Z" fill="#c8807b"/> <path d="M156.9,30.5c3.8,4.2-1.7,8.3,7.1,7.8a6.6,6.6,0,0,0,4.5-1.2c-1,1.9-1.9,3.9-3.1,5.8-2.6-2.6-5,1-7.4.2a11.8,11.8,0,0,0,2.2-1.4c-2.2,0-4.4,1.4-6.7,1.9a9.1,9.1,0,0,0,1.3-3.7l-.8,1.2c0,.1-.2.1-.2.1,0-1.6.2-3.2-.7-4.6s-.9-3.5-2.3-4.8h.7c.5-.7,1.9,2.2,1.8-.5h.1c1.5,1,2.8,1.3,3.4-.9-.5,1.6,1.3,4.4-.8,5,0,1,.5,2.4.2,3.4C157.2,36.1,156.8,33.1,156.9,30.5Z" fill="#ecaaa4"/> <path d="M152.6,62.2l-.9.3c1.5,1.9-.8,3.4-.6,5.1,3.9,1.2,7.6,1.1,11.1,4.3-4.5-1.4-9.1-2.6-13.5-4.3-2.4-1,0-3,0-4.6-.2.1-.6.1-.6.2-1.7,7.7-6.3,1.6-9.3,1.5s-6.6-1-9.9-1.1c1.3-3.3,16.7-3.6,14.8.5-.1.2.2.6.4.8.3-1.5,1.4-3.1,3.1-2.8a7.2,7.2,0,0,0-1.3,2.8c1.4-2.8,4.5-5,4.8-.3C151.1,62.8,149.8,61.3,152.6,62.2Z" fill="#d19188"/> <path d="M2,265.2c-2.3,3.4-4.2,8.6-6.9,11.2-.6-1.2-2.9-1.5-1.9-3.6,7.2-12.7,17.7-23.1,25.9-35.1.5-.6.9-1.1,1.8-.4s-.1,1.2-.4,1.5c-8.5,11.8-20,22-25.6,35.8C-3.8,273.6,1.1,263.4,2,265.2Z" fill="#93acbf"/> <path d="M41.8,254.4c-29.6,47.1-35.5,50.5-2.2,0C40,252.9,41.1,253.5,41.8,254.4Z" fill="#62809a"/> <path d="M24.4,244.2a1.3,1.3,0,0,0-1.2-1.1c1-.6,1-2.7,2.8-1.9s1.5,3,.1,4.5c-9.2,10.3-17,22.2-24.2,34.1-.4.7-.7,1.3-.2,2.1l-.5.9c9.5-10.3,15.4-23.8,24.1-34.9,1-1.2,1.7-.2.8.8A338.2,338.2,0,0,0,3.6,283.5c-.3,2.8-6.4-1.5-2.7-5.6,7.8-12.3,17.2-23.5,25.4-35.6A17,17,0,0,0,24.4,244.2Z" fill="#5c7c97"/> <path d="M103.3,105.3c-2.8-.9-8.5-1.4-4.2-4.8s15.6-2.5,13.7,4.3a8.9,8.9,0,0,0,1.2-2.6l1.9,1.4c-2.6,1.7-4.4,4.9-7.9,5-.9,0-2.8,1.5-2.2-1.4.3-1.2-1.3-1.1-1.9-1.7s1.6.6,2.3-.5a2,2,0,0,0,0-2.1c-1.5-3.3-9.1-2.3-5.5.4C101.6,103.7,103.4,104.1,103.3,105.3Z" fill="#ebaaa4"/> <path d="M28.3,260.1A310,310,0,0,0,9.9,288.3c-.7,1.1-1.1.1-1.6-.1s-.9-.5-.4-1.3q12.3-18.1,24.3-36.5c4.6-.3-3.1,7.8-3.7,9.6Z" fill="#94aec1"/> <path d="M152.1,97.7c-3.3-.7-9.5-2-7.3-6.4a1.4,1.4,0,0,1,2.3-.8c.8,0,2-3.5,2.3.3h.3c-.1-2.7,1.5-.9,2-.6C157.7,93.4,162,96.4,152.1,97.7Z" fill="#fdddce"/> <path d="M145.8,89.4c-5.8,6.1-4.8-10-10-13.2C140.4,76.1,151.2,84.9,145.8,89.4Z" fill="#ffe0d1"/> <path d="M17.8,235.2C8.5,247.2-2.1,258-9.6,271.1c-.1-10.1,19.2-26.8,25.5-35.7A1.1,1.1,0,0,1,17.8,235.2Z" fill="#94adc0"/> <path d="M-3.4,179.1c-2.3-5.2-3.1-10.9-3.6-16.6l1.6-1.5c-.7,11.4,8.3,19.7,11,30.2C1,188.5-1,183.1-3.3,178.7Z" fill="#587894"/> <path d="M-2.8,279.1c-6.3-1.3,24.6-40.2,27.2-39.3.9.8,0,1.1-.3,1.5-9.7,12-21.7,22.8-26.9,37.8Z" fill="#5b7a94"/> <path d="M4.8,285.9c-.9-.4-1.2-.7-.7-1.4l25.3-38.6c.5-.7.8-1,1.6-.3s.4,1-.1,1.6C21.3,259.4,13.5,273,4.8,285.9Z" fill="#93acbf"/> <path d="M114,62.5c6.3,3.9,25.5-5.2,23.2-13.7,7.6,6-12.8,17.3-18.3,17.5C116.9,67.1,111.7,65.3,114,62.5Z" fill="#ecaaa4"/> <path d="M1.7,281.9c-.9-.2-1.2-.5-.7-1.4,7.4-12,15.3-25.4,25.2-34.8C17.3,257.3,10.3,270.2,1.7,281.9Z" fill="#94adc0"/> <path d="M2.3,228.4c2.1-1.8,4.6-3.1,5.9-5.7.1.5,8.5,6,7,6.5s-1.2,2.9-2.7,1.9C6.1,227.8,9.5,237.5,2.3,228.4Z" fill="#587894"/> <path d="M189.7,70.5c-2.9.4-7.2-1-4.3-4.6,1.1-1.3,10.3-2.2,11.3-.9C198.8,68.8,192.5,70.7,189.7,70.5Z" fill="#eab5a4"/> <path d="M108.7,215.6c3.4-2,.9-5.1,1.5-7.8a18.4,18.4,0,0,0,.5,2.5c.3.7-.6,3.3,1.8,1.3a3.5,3.5,0,0,1,1.1-.3c-2.5,6.8,6-3,6.1-5.2l2.5.3-1.9,1v.3c3,.4.3,1.7.1,2-2.6,4.3-6,8.7-10.5,11.1-.8-1.4,1.6-2.9,2.3-3.9-1,.3-2.6,2.8-3.3,1.1A1.7,1.7,0,0,1,108.7,215.6Z" fill="#c9807c"/> <path d="M107,81.5c2.7-1,7.3,3.1,7.4,6.6s1,5.3-1.6,5.7c-4.8-.4-4.6-8.3-5.8-12A.2.2,0,0,1,107,81.5Z" fill="#f6c9be"/> <path d="M3.6,283.5c-.8-.4-.2-.9,0-1.3,7-11.9,14.7-23.4,22.4-34.7l-.8.4C40.1,229.2,5.4,281.5,3.6,283.5Z" fill="#91abbe"/> <path d="M122,154l-.4-2.2c-.8,1.7-1.5,3.4-2.2,5.3-.2-2.6.1-5.7,1.8-8,.7-.3-1-.2-1-.1-2.1,4.3-5.6,7.8-7.3,12.4-3.1-.4,2.5-9.4.4-8.5l.8-1.3-2.9,1.6c2.1-3.3,5.8-5.2,9.5-6,.5.7,3.4-1.2,4.5-1.3C123.4,148.3,122.8,151.2,122,154Z" fill="#c9807c"/> <path d="M133.9,64.5c-7.1,2.4-14.7,9.5-21.9,2.9-1.5-1.3-2.6-3-4.9-2.8a12,12,0,0,0,4.2-.4,4.7,4.7,0,0,1-2-1c4.9-2.9.7,1.6,6.6,3.9a10,10,0,0,0-2.4.4c1.1.4,2.7-.2,3.7.2s1,.2,1.3.1a63.4,63.4,0,0,0,8.7-2.9l-.4,1.1C128.2,63.4,131.4,64.2,133.9,64.5Z" fill="#c8807c"/> <path d="M148,79.5c1.8-2.4,1.6,7,6.4,7.2s.9-3.3,3.1-3.9.2,3.5,1.9,4.1a19.4,19.4,0,0,0-.2,2.4c-1.3-1.3-1.4-3.1-1.8-4.7-.6,3,3.6,6.7-1.6,5.8-6.9-.7-8.5-2.7-7.7-9.9C147.9,80.2,148.1,79.8,148,79.5Z" fill="#c9807c"/> <path d="M126.4,79.8c.6,4-4.5,6.1-5.5,2-.3-2.3-2.8-5.7-1.3-7.7C123.2,72.5,126,76.7,126.4,79.8Z" fill="#f8cec2"/> <path d="M7.9,285.3c-.5.5-.4,2-1.6,1.5s0-1.3.3-1.8c8.2-12.7,15.7-25.9,25.1-37.9.6-.6.9-.1,1.3.2C26,259.5,15,272,7.9,285.3Z" fill="#91aabe"/> <path d="M-12.2,265.4a1.3,1.3,0,0,1,.1-1.8c7.9-10.3,15.5-22.4,23.3-31.9,1-.6,1.6.5,2.4.7C4.5,243-4.2,254-12.2,265.4Z" fill="#587894"/> <path d="M110.3,80.1c4.8,3.1,6.5,7.7,6.4,13.1,0,.6.2.7.7.7s1.5-.2,1.6.6-.8,1-.9,1.6-3,.8,0,1c1.3.9-4.4-.1-.3,2.7-1,1.3-2.8.9-4.1.8a17.4,17.4,0,0,0,1.9-1c-2.2.7-6.3-3.7-5-5.9.6.4,1.6.7,1.7,1.2s.7.3.8.2c1.8-1.5,3.8-3.3,2.9-5.9a11.6,11.6,0,0,0-.4,1.8c-.3-4.7-1.9-8.1-6.1-10.3Z" fill="#eba9a3"/> <path d="M94.8,114.6c1.4-2.9-2.7-5.5-5.6-4.8,2.6-.5,5.2-1.5,7.9-1.6a12.8,12.8,0,0,0-2.8,1.6,13.7,13.7,0,0,1,11.4-.1c-3,1.6-5.3,4.9-9.4,4.2.7.4,1.7-.2,2.1.9A21.7,21.7,0,0,1,94.8,114.6Z" fill="#c8807c"/> <path d="M107,81.5c-.6,6.1,3,11.5,4,17.2-5.2-1.6-8.6-5.6-11.7-9.9,1.5-.3,1.6,1.9,3,1.7s1.1,1.2,1.6,1.8C102,88.9,100.2,85,101,81c1,2.8,2.4,12.4,6.4,11.2.9-.2.3-.9.1-1.2a21.9,21.9,0,0,1-1-9.5Z" fill="#c8807b"/> <path d="M92.6,83.7c-1.6-10.2-5.5,1.5-13.1,3.7,7.9-7.4,14.1-17.3,24.1-22.3-4.5,4.4-12.5,9.5-10.7,16.8C92.8,82.5,93.2,83.2,92.6,83.7Z" fill="#c7807c"/> <path d="M31.1,259.7c-.7-.8-.9.1-1.1.4-7,8.6-12.5,19.6-18.8,27.9,4.5-10.1,11.7-18.4,17.1-28h0c2.1-2.5,3.4-6.8,6.2-8.4C37.9,253.3,31.9,257.5,31.1,259.7Z" fill="#93adc0"/> <path d="M163.3,127.6c-1-2.1-1.5-5.1-4.2-5.8,1.8,8.1-.8,15.9-2,23.9,0-.2.1-.3-.2-.3l-2.1,3c2.6-9.2,6.3-20.8,1.4-29.8C161.3,118.7,163.3,123.2,163.3,127.6Z" fill="#eaaaa4"/> <path d="M51.9,138c-6.7,4.9-11.8,11.5-17.5,17.3-.9,1.8-3.3-.5-1.6-1.5l16.7-16C50.2,136.8,51.3,136.7,51.9,138Z" fill="#63819b"/> <path d="M126.3,195.5a49.4,49.4,0,0,0,5.3-14.3,20.8,20.8,0,0,0,4.3-1.9c-.9,6.1-4.7,11.2-7.8,16.5-.7,1.2-1.3-.3-1.9-.1S126.2,195.5,126.3,195.5Z" fill="#c87f7b"/> <path d="M138.6,48.4c-1-1-1-1-.5-1.9a6.2,6.2,0,0,0-1.1-1.7c.6.4,1.6.6,1.8,1.1,4.8,9.6,8.1-3.8,13.5-4.9-.1,5-5.1,6-7.5,9.2-1,1.4-2.7,2.9-4.1,3S140.6,50.1,138.6,48.4Z" fill="#ecaaa4"/> <path d="M2,265.2l-4.9,6.2c6.2-12.1,15.9-21.6,24-32.4.5-.7,1-.9,1.7-.3C17.5,247.5,7.8,255.7,2,265.2Z" fill="#5c7b95"/> <path d="M108.7,215.6l.2,2.4c0,1.2-4.9,6-5.7,5.4s-.3-2.9-.7-4.4c8.5-1-1.2-9.4,1.7-14,.2.2.5.5.5.7C104.4,209.7,107.5,212.2,108.7,215.6Z" fill="#c8817d"/> <path d="M11.2,231.7c-9.3,9.4-15.8,21.4-24.3,31.6,5.8-10.9,15-20.9,22-31.5C9.4,231.1,10.3,229.5,11.2,231.7Z" fill="#557590"/> <path d="M53.2,167.2l-1-.4c3.1-2.4,11.5-21.3,14.2-19.7,1,.8-.3,1.3-.6,1.8C62.5,152.8,57.2,166.2,53.2,167.2Z" fill="#577792"/> <path d="M176.6,81c3.6,1.2,7.8,2.8,10.3,5.8C183.3,90.2,170.9,82.6,176.6,81Z" fill="#eab5a4"/> <path d="M101.6,122.3c18-7.8,11.4-2.1,8.2-10.5-.5-2.1-1.4-1.5-2.5-.6l-1.2-.2c8.1-4.6,1.6.4,9.1,4.2h0C122.5,118.9,104,122,101.6,122.3Z" fill="#c8807c"/> <path d="M51.4,166.9l-1.8-.6c4.8-6.5,9-14.1,14.6-19.9C61.1,153.1,55.6,160.2,51.4,166.9Z" fill="#577792"/> <path d="M189,87.1c-3.4,2-7.4,3.3-10.5,5.7a15.6,15.6,0,0,1,3.4,2.3c-5.6,1.4-11.7.2-17.4.5a31.4,31.4,0,0,1,13.3-.3c-.4-.8-3.8-1.5-4.6-1.9C178.3,90.9,183.4,88.4,189,87.1Z" fill="#eaaaa4"/> <path d="M126.3,195.5v.2c1.5,1.6.6,3.9-1.6,4.4.1.4.5,1,.3,1.3-1.4,3.3-1.8,5-6.3,4.3l-.7-.6.8-.2c2.9.4,3.5-2.7,4.4-4.4a34.7,34.7,0,0,1-13.5,4.8c5.3-2.1,11.3-2.8,14.7-8.3C125.7,194.9,125.9,195.1,126.3,195.5Z" fill="#c9817d"/> <path d="M131.2,75.8c3.5.1,10.2,8.3,5.1,10.1-2.2-.7-3.9-6.5-5.6-8.6S130.4,75.9,131.2,75.8Z" fill="#fcd9cb"/> <path d="M31.4,154c-2.9-1.7,15.7-15.5,17.8-18.6.3-.3.6-.5.8,0s.9.7.2,1.3C43.6,142.1,37.5,148.1,31.4,154Z" fill="#6c89a1"/> <path d="M5.6,243.9c2.5-2,7-12.7,10.2-10.1.9.8-.3,1.2-.6,1.6L1.9,250.7c-.7-2.4,5.5-7.1,6.7-9.2C8,241.8,6.1,245.4,5.6,243.9Z" fill="#8ca6ba"/> <path d="M7.9,285.3c5.5-11.5,13.4-21.4,21-31.4C21.9,264.3,15.2,275,7.9,285.3Z" fill="#597793"/> <path d="M5.6,243.9c1.9-.5,2.2-2.6,3.8-3.4-2,3.7-5.8,6.4-7.5,10.2-4.5,5.5-8.9,11-12.1,17.3-.7,1.6-1.2-1.2-1.6-1.7s.1-1,.7-.8.9-.3,1-.6Z" fill="#597994"/> <path d="M-11.1,265.5l-.7.8-.4-.9c5.8-9,11.8-18.6,19.9-25.6C1.4,248.3-4.8,256.9-11.1,265.5Z" fill="#91aabe"/> <path d="M108.7,137l-13.1,5.4H95c2.3-4.9,19.8-8.3,15.2-10.5,2.4.7,4.9.2,7.3-.2-3,.9-6.3,1.4-8.5,4C108.8,136.1,108,136.3,108.7,137Z" fill="#c9807c"/> <path d="M55.7,141.8,40.3,160.4c-.4.5-.8,1.3-1.6.6s.3-1,.6-1.4c5.3-5.3,9.3-11.8,14.4-17.5C54.1,141.3,55.1,140.8,55.7,141.8Z" fill="#607f98"/> <path d="M60,144.9c-5.6,5.8-9.3,13.1-14.9,18.9a.9.9,0,0,1-1.4.3c-.6-.4,0-.7.2-.9L58.5,145c.5-.6,1-1.2,1.5-.1Z" fill="#87a1b5"/> <path d="M95.1,224.1c3.8-1,1.1-5.1.9-7.6,1.3-.3,1.1,2.5,1.3,3.4s-.5,2.9,1.5,2.7,2.1-3.4,2.3-5.5c3.1,4.4-2.1,11.9-1.4,6.1-.1.5-.5,1-.4,1.5s-1.4.6-1.3,1.6-2,1,.2.9c-.4.6.1,1.7-1.1,1.7s-1.3-1.3-1.6-2.2A10.9,10.9,0,0,1,95.1,224.1Z" fill="#c8807b"/> <path d="M48.4,166.1c-.4-.3-1.2-.2-.6-.9,4.7-5.2,9.1-16.6,15.2-19.3.6.6-.2.8-.4,1.1C57.3,152.9,53.3,159.8,48.4,166.1Z" fill="#557590"/> <path d="M34.8,157.5c-.6-.3-.6-.7-.3-1.1,5.3-5.9,10.5-11.9,16.5-17.1.4-.4.9-.9,1.6-.5C47,145.3,40.8,151.3,34.8,157.5Z" fill="#64819a"/> <path d="M125.6,122.8l-6.8-2.9c3.3-3.4,10.1.5,14.5-.6-.6,1.1-2,1.4-3,2s-1.1-.4-1.7-.7-1.3-.8-2.2-.6c1,.7,2.4,1.1,2,2.5s-2.2-1-3.6-.8l1.5,1A.5.5,0,0,1,125.6,122.8Z" fill="#c77f7b"/> <path d="M125.6,122.8c5.8.2-9.4,10.1-12.1,8.6Z" fill="#c97f7b"/> <path d="M57.4,143.1C52,149,47.3,155.4,42.1,161.5c-.4.4-.8,1.4-1.5.6,3.8-6.2,10.1-12.7,14.7-19C55.8,142.1,56.6,142.2,57.4,143.1Z" fill="#7f9bb0"/> <path d="M146.9,51.1c-1.5,1.8-2.7,4.1-1,6.1-2.8.4-5.6-.4-8.4.2,1.5-3.8,5.7-4.1,8.3-6.7C146.6,49.9,146.2,51.7,146.9,51.1Z" fill="#c87f7b"/> <path d="M149.4,55.5c5.9-.9,17.8.1,17.8-8.2,1.3,3.6-.3,6.5-4,7.3S151.2,59.8,149.4,55.5Z" fill="#c57d79"/> <path d="M103.3,105.3l-2.2-1.4c-.8-.5-2.1-.1-2-1.4.7-3.8,6.1-2.3,7.6.2a2.7,2.7,0,0,1-.1,3.1c-.8,1.2-2.4-1.8-2.7-.3Z" fill="#ffe0d1"/> <path d="M111.8,109.5c2.3,4.1,5.9,2,9,1.8s1.7-3.8,3.5-5.5c-.2,1-.3,1.8-.5,2.8l.7-1.1C125,115.6,111.4,117,111.8,109.5Z" fill="#ecaaa4"/> <path d="M149.9,60.2c9.1.5,18.2,2.7,27.4,2.3,1.3-.2.5-1.9.7-2.8l.8,1.2c.1,2.8-1.6,2.7-3.6,2.5-8.4-.8-16.8-1.4-25.2-2.1-1.8-.2-1-1.7-1.2-2.7s.2,1.4,1.1,1.7Z" fill="#c67c78"/> <path d="M118.8,100.2c1.7,1.3,2-.2,2.7-1.2,4.7-5.4,2.8,2.4,5.3,2,0,0,.1.5-.6.5-4-.3-8.5,2.6-12.1-.2l1.1-.6A20.8,20.8,0,0,1,118.8,100.2Z" fill="#eaa9a3"/> <path d="M88.3,109.6c3.4-3.4,5.4-1.8,5.7-7.6.2-1.8-2.2-.6-2.8-1.8h7.2c-1.3,1-1.6,2.7-2.7,3.9s1.2,1.6,1.7,2.6.4.4.6.6C94.7,107.4,91.3,107.8,88.3,109.6Z" fill="#c8807c"/> <path d="M145.8,58.3l-.5,2c-.1.4.8.8,0,1.1s-1.2.2-1.3-.7c-3.4.7-7.2-.9-10.8-.3.3-.2.6-.6.9-.6s2.4-1.6,3.9-1c.1-2,1.7-1,2.6-1.1s2.6-.3,2.9,1.5c.2-.1.4-.1.5-.3S145.7,57.4,145.8,58.3Z" fill="#cc8a83"/> <path d="M160.8,95.5l-5-4.2c4.5-2.2,7.1,1.8,11.2,2.4C165.6,94.9,162.9,94.8,160.8,95.5Z" fill="#eaa9a3"/> <path d="M180,62.2c4.7,1.9,11.6-.7,12.2-4.5.9,4.2-1,6.5-5.1,6.5C185.4,63.8,178,65.4,180,62.2Z" fill="#c87f7b"/> <path d="M56.6,167.5c-.7-.1-1.4.1-.8-.9,3.7-6.1,7.3-12.2,11-18.2.3-.5.6-1.2,1.4-.9-3.4,6.2-7.2,12.2-10.2,18.6C57.7,166.7,57.5,167.7,56.6,167.5Z" fill="#55748f"/> <path d="M53.4,139.9c-6.3,5.5-10.8,14.4-17.8,18.4a194.6,194.6,0,0,1,17.6-18.7Z" fill="#8ba5b9"/> <path d="M161.2,86.9a27.7,27.7,0,0,0,7.5,4.2l1.3,2C166.2,92.6,159.7,93.1,161.2,86.9Z" fill="#c87f7b"/> <path d="M37.6,160c-.5-.3-.8-.5-.5-1,5.7-6.1,10.9-12.8,16.9-18.5C49,147.1,43.7,154.2,37.6,160Z" fill="#88a3b6"/> <path d="M147.7,123.6c1.5-.2,2.4,1.1,2.8,2.3a4.5,4.5,0,0,0-1.6-1.2c2.3,2.7,1.8,5.9,1.5,9-1-3.3-1.6-6.8-6-7.3-.1,0-.1-.5-.1-.8Z" fill="#ebb6a4"/> <path d="M59,167.5c-1,.1-.7-.3-.5-.7,3.7-6.2,6.4-13.2,10.6-19A130.4,130.4,0,0,1,59,167.5Z" fill="#557590"/> <path d="M120.3,73.3c3.3-3.5,6.8-2.6,10.3.1a8.1,8.1,0,0,1,.1-2.2,9.3,9.3,0,0,1,1.5,1.3l.6-1.9.2.4c-.8,1,.5,1.9.1,3-2.5.3.6.8,0,1.1s-.1.4-.1.4C125.4,75.8,130.1,70,120.3,73.3Z" fill="#c9807c"/> <path d="M46.9,134.2c-5,6.3-11.7,11.8-18,16.6,5.3-6.1,12.1-11.1,17.9-16.8Z" fill="#8ca6b9"/> <path d="M183,57.2c-.7-.1-1.9.6-1.9-.7-.1-3.3,5.6-1.9,7.8-3.1.7-.1,1.5-.2,1.6.5C189.8,56.8,185.4,56.7,183,57.2Z" fill="#e9b4a3"/> <path d="M60,144.9l1.3.3c-5.1,6.1-9.4,12.6-13.9,19.1-.4.5-.7,1.4-1.5.8s.2-1.1.6-1.5c5.2-5.7,8.7-12.6,13.5-18.7Z" fill="#54748e"/> <path d="M45.5,126.3a187.6,187.6,0,0,1-19.7,15.9c5.4-6.5,13-10.9,19.5-16.1Z" fill="#8ea8bb"/> <path d="M30,152.3l-.3-.3c5.4-6.4,13-11,18.1-17.9C54.8,131.3,31,151,30,152.3Z" fill="#5d7c94"/> <path d="M24.2,140.8c-.2-.9-.2-1.6.6-2.1,6.8-4.7,13.1-10.6,20.2-14.5C37.9,129.5,31.2,135.3,24.2,140.8Z" fill="#5f7d95"/> <path d="M58.6,143.8c-5.4,6.4-10.5,13.4-16.4,19.3,4.4-6.6,10.2-12.6,15.1-19C57.7,143.8,58.2,143.3,58.6,143.8Z" fill="#7a96aa"/> <path d="M50.7,106.4c-7.1,6.6-16.3,9.7-24.3,14.7,2-3.3,6.1-4.5,9.4-6,5.4-2.2,9.7-6.2,14.8-8.9Z" fill="#7996ac"/> <path d="M163.1,42.7c3.7,1.3-5.2,6.1-6.7,4.9S160.7,43.2,163.1,42.7Z" fill="#e4ae9e"/> <path d="M148,79.5c1.4,0-1.1,2.5-1,3.7l-.3-1.8-.7.5c-1.2-2.5-5.1-3.9-4.7-7.2l.7.6c.8-1.1,3.7.1,1.8.9l.9.8c.2.9,1.3.2,1.6.9S146.4,80,148,79.5Z" fill="#c77f7b"/> <path d="M24,133.3c-.4-.1,0-1.2.1-1.3,6.4-4.3,13-9.7,20-12.3C38.6,124.9,29.7,127.6,24,133.3Z" fill="#809db1"/> <path d="M24.5,128.9l-.3-.2c5.2-5.6,13.6-8,19.9-12.2C38.7,121.6,30.8,124.6,24.5,128.9Z" fill="#648198"/> <path d="M18.1,212.3a5.8,5.8,0,0,0,2.3-2.6A42.7,42.7,0,0,0,30,215C25.9,214.9,21.9,213.6,18.1,212.3Z" fill="#577792"/> <path d="M168.7,90.4l.2-1.3c.6,2.2,3.1,1.2,4.7,1.5s1-.1,1-.3,9,.6,2-4.3c.6.6,6.4,2.4,4.3,2.9C177.2,90,171.7,95.2,168.7,90.4Z" fill="#c87f7b"/> <path d="M97.1,228.9l1.1-1.7v3l.6-3.1c.4-1.6,5.4-2.7,3.3-.2s-4.1,6.3-6.6,4.9S96.1,229.7,97.1,228.9Z" fill="#c47d79"/> <path d="M97.1,104c14.6,4.5,5.4,7.1-1.4.4Z" fill="#e8a8a2"/> <path d="M47,129.6c-6.7,5.8-13.3,12.2-20.5,17.2,6.4-6.2,13.4-12,20.3-17.6Z" fill="#7e99ac"/> <path d="M25,126.6h-.2C30.2,121.3,38,119,44.3,115,38.8,119.6,31.3,122.7,25,126.6Z" fill="#88a3b6"/> <path d="M27.8,133.5h-.3c5.4-4,10.7-8.7,16.9-11.4C39.3,126,33.8,130.6,27.8,133.5Z" fill="#8da8ba"/> <path d="M24.3,130.6h-.2a97.8,97.8,0,0,1,20-12.3C38.3,123,30.6,126.2,24.3,130.6Z" fill="#7c99ac"/> <path d="M26.1,145.7c.7-2.5,18.4-15.6,20.2-17.5C40.5,134.6,32.7,139.8,26.1,145.7Z" fill="#4e6d86"/> <path d="M29,122.2h-.3c4.7-3.9,11.1-5.2,15.9-9.1C41.1,117.5,34.3,119.8,29,122.2Z" fill="#7290a6"/> <path d="M35.7,253.3c-2.2-3.4-2.7,1.2-4.2,2.3s-.2-.2-.3-.3,4-4.2,1.1-4.8c2-3.5,3.1-1.1,5.2.6Z" fill="#4e6a82"/> <path d="M27.5,148.3l-.4-.2c6.4-5.9,13.6-12,20.3-17.5,0,.6-19.3,17-19.6,17.4Z" fill="#748fa1"/> <path d="M38.2,124.7,24.5,134.9l-.7.2c3.3-5.2,9.5-7.4,14.4-10.7C38.3,124.4,38.3,124.6,38.2,124.7Z" fill="#5a7993"/> <path d="M46.2,111.1c-5.6,5-13.1,6.9-19.2,11C32.3,116.8,39.9,115.1,46.2,111.1Z" fill="#7995a9"/> <path d="M44.9,109.4c-5.4,3.6-11.5,6.2-17.3,9.2C31.9,113.5,39.3,112.7,44.9,109.4Z" fill="#85a1b4"/> <path d="M114.8,135.5c.8.7,1.8,1.3,1.3,2.6s-2.8,8.1-5.4,9l3.4-10.1.5.4Z" fill="#c8817c"/> <path d="M61.1,167.3c-2.2.7,5.3-11.4,5.9-12.6A53.6,53.6,0,0,1,61.1,167.3Z" fill="#53728c"/> <path d="M50.4,105l-1,.2c3.1-3,6.7-5.9,10.7-7.4,0,.3-5.4,4.4-5.7,4.6A7.8,7.8,0,0,1,50.4,105Z" fill="#50708a"/> <path d="M35.7,135.8c-3.5,2.7-6.6,6.5-10.4,8.5,2.5-3.4,7.1-5.5,10.4-8.5Z" fill="#718da1"/> <path d="M24.2,138.1l-.3-.2a20,20,0,0,1,9.3-6.5Z" fill="#7994a8"/> <path d="M145.8,58.3v-.5c.6,2.5,1.2.9,2.4.3s.9,1.5,1.6,2.2c-1-.2-.5-1.3-1-1.7C148.8,62.6,145.2,62.2,145.8,58.3Z" fill="#ca8f85"/> <path d="M45.3,125.2a71.8,71.8,0,0,1-10,7.4A30.3,30.3,0,0,1,45.3,125.2Z" fill="#728ea1"/> <path d="M103.3,225.7c-1.3-1.5,4.7-4.5,5.9-5.3C109.6,222.7,104.9,224,103.3,225.7Z" fill="#be7a76"/> <path d="M35.7,135.8c3.4-2.7,6.5-6.5,10.2-8.6-2.6,3.3-6.6,6.1-10.3,8.6Z" fill="#668296"/> <path d="M94.3,231.2c-.3,2.7-2.8,2.8-4.3,3.9.4-1.6,1.8-2.8,2.7-4s-.5.9.4.3S93.9,230.4,94.3,231.2Z" fill="#c07b77"/> <path d="M47.9,131.8c0,.7-6.9,6.9-7.4,6.8a35.1,35.1,0,0,1,7.3-7.1A.5.5,0,0,0,47.9,131.8Z" fill="#55748b"/> <path d="M156.3,43.7l1.3.5c-1.8,1.4-4.5,1.8-6.7,2.1C152.4,45,154.6,44.6,156.3,43.7Z" fill="#dda29c"/> <path d="M119.1,56.2c-1.3,2.8-4.1,3.8-5.9,6.1a20.9,20.9,0,0,1,5.7-6.5Z" fill="#e7ccbf"/> <path d="M150.6,117.9l2.8.6c-1.6,1.8-4.2.9-6,0Z" fill="#b07370"/> <path d="M34.9,143h.3C26.7,152.1,24.7,151,34.9,143Z" fill="#4d6c85"/> <path d="M50.4,105c.3-.1,4.4-3,4.6-2.7-1.2,2.4-4.7,3.6-7,4.6A11.2,11.2,0,0,1,50.4,105Z" fill="#4d6c85"/> <path d="M33.5,113.7h-.3c.2-.2,11.1-5.3,11.4-5.2C41.9,111.3,37.3,112.1,33.5,113.7Z" fill="#6e8a98"/> <path d="M172.7,64c-1.3,2.5-.3,6.2-3,8.1.6-2.7,1.6-5.4,2.3-8.1Z" fill="#4a3532"/> <path d="M118.6,132.8c-.8.7-1.5,2.8-2.3,3.1s-.2-1.3-.8-1.8A2.4,2.4,0,0,1,118.6,132.8Z" fill="#c8817c"/> <path d="M45.3,122.9a48.1,48.1,0,0,1-7.5,4.9C40,126,42.5,123.5,45.3,122.9Z" fill="#5f7e93"/> <path d="M38.2,124.7v-.3c2.1-1.1,3.9-2.8,6.1-3.5C44.4,121.3,38.5,124.5,38.2,124.7Z" fill="#5a788e"/> <path d="M168.4,75.2l-1.3,2.4c-.3,0-.3-.2-.4-.4l-1.1-.3,1.9-2.1Z" fill="#7b5551"/> <path d="M169.8,75.9c-.8,1-.1,2.6-1.6,3.3.2-1.2.5-2.4.7-3.6Z" fill="#7b5551"/> <path d="M232.5,112.3c-6.6,5.5-15,9.1-23.1,11.8C216.9,119.9,224.2,115.1,232.5,112.3Z" fill="#edaba5"/> <path d="M270.7,96.8c-7.8,5.8-16.8,15-27.6,12.6C254,110.2,261.8,101.4,270.7,96.8Z" fill="#090505"/> <path d="M242.9,90c.1,4.3-2.3,9.4-6.7,10.6,3.5-3.2,6.8-6.9,5.7-12.2h.4Z" fill="#0e0a09"/> <path d="M161.5,111.5c-3.2-1.3-3.4-8.8-2.1-11.9C159.7,103.2,159.1,108,161.5,111.5Z" fill="#130e0e"/> <path d="M175.5,113.5c-1.4,1.1-2.6,2.5-4.3,3a79.7,79.7,0,0,0,8.5-9.8Z" fill="#120c0b"/> <path d="M140.6,105.5c-1,2.9-1.7,5.9-2.9,8.6.4-4.7,2.2-9.1,3.8-13.4C142.2,102.2,140.8,103.9,140.6,105.5Z" fill="#1c1413"/> <path d="M133.6,103.3c-1.6,2.8-.4,5.9-1.1,8.8a12.7,12.7,0,0,1,1.2-10.4Z" fill="#271e1c"/> <path d="M238.6,96.5c.2,1.9-1.6,2.1-2.5,3H234C235.8,99,237.1,97.6,238.6,96.5Z" fill="#2f1a19"/> <path d="M134.2,107c.8-1.5,1.2-3.6,2.3-5-.2,2.1-1.2,4.2-1.9,6.2Z" fill="#5d4743"/> <path d="M138.7,107.2c-.7,1,.1,2.6-1.3,3.4.4-1.7.7-3.3,1-5,.2.1.3-1.3.5-.1A4.7,4.7,0,0,1,138.7,107.2Z" fill="#4a3634"/> <path d="M171.8,117.8l-1.2.2a63,63,0,0,1,5.3-3.7Z" fill="#412e2b"/> <path d="M60.9,208c7.7-14.1,13.7-29.4,22.9-42.7,5.2-8.9,6.9-23.3,19.3-24.6-14.4,9.7-14.7,30-24.3,43.3,1.6-5.1,4.3-10.1,5.4-15.4-4.2,10.3-8.5,20.9-14.8,29.9-.3-1.4,1.3-2.7,1.8-4C68.4,199.1,65.6,205.4,60.9,208Z" fill="#c9807c"/> <path d="M77.3,157.1l-.2-.3c-4.5,12.1-9.6,24.2-17.5,34.7,2.5-2.6,3.7-7,6.6-9-1.9,4.2-4.5,8.9-8.2,11.6,7-15.8,16.6-55.2,30.7-63.3-2,5.1-5.9,10.1-7.4,15.7-.2.6-.4,1.6-1,1.4s.4-2.9.4-4.1C79.7,146.1,79.8,154.1,77.3,157.1Z" fill="#c9807c"/> <path d="M113.2,152.9c.8,0,1.1-1.4,2-.7l-1.8,2.6c-4.5,4.1-3.5,11.4-6.1,16.6.4-1.3.9-3,2.4-3.6h.1c-3.5,8.3-7.5,16.7-14.1,23.2,2.2-6.2,7.4-10.8,9.1-17.1S107.6,158.3,113.2,152.9Z" fill="#050303"/> <path d="M77.3,157.1c1.4-5,2-10.3,3.8-15.1-.1,1.9-.7,3.8-1,5.8,2.8-6.3,5.1-13.4,10-18.3l-.8,2c1.6-.4,2.9-1.8,4.8-1.5-11.9,5.6-12.2,21.1-17.7,31.6A23.9,23.9,0,0,1,77.3,157.1Z" fill="#050403"/> <path d="M81.5,180.1c6.5-13.3,8.1-33,23-39.9-1.1,1.6-2.9,2.7-4.3,4a3.2,3.2,0,0,1,1.7-.1C90,153,87.8,167.6,81.5,180.1Z" fill="#080505"/> <path d="M109.9,157.6c-3.3,10.8-5,22.3-13.1,30.9Z" fill="#c87f7b"/> <path d="M64.5,224.1c-3.3,8.5-15.3,21.1-24.2,12.5,11.1,6.1,20.3-6.6,24.7-15.3C64.8,222.2,64.7,223.1,64.5,224.1Z" fill="#040202"/> <path d="M111.2,188.2l-1.3.3c5.9-7.6,14-13.2,20.1-20.5-.9,2.4-3.2,4.2-4.9,6.1.3-.1.7-.5,1-.3s1.2-.4,1.8-.5a4.2,4.2,0,0,0,1.4-.6c.2.6-.4,2.1-1.3,2A88.1,88.1,0,0,0,111.2,188.2Z" fill="#d18c85"/> <path d="M35.9,221.8c-3.1,3-4.1,6.7-3.8,10.9-4.9-11.4,11-17,17.5-23.3C46,214.7,40.1,217.3,35.9,221.8Z" fill="#050303"/> <path d="M120.8,173.6c-.6.1-.9,1.6-1.7.6s.3-1.4.8-1.8c4.1-3.2,5.8-8.8,10.1-11.6.5,2.9-1.6,6-3.5,8.2-.4-2,.9-3.4,1.7-4.9C126.5,167.1,123.9,171.1,120.8,173.6Z" fill="#c8807b"/> <path d="M66.2,182.5c-2.7,3.5-4.8,7.5-7.8,10.7,5.4-9.2,11.3-18.3,15.8-28.1C72.6,171.4,69.2,176.8,66.2,182.5Z" fill="#080505"/> <path d="M105.6,198.7l-3,1.2c4.3-5,10-8.6,14-13.7,0-1,.8-1.2,1.4-1.5s2.5-2.6,4.2-2.1C116.4,187.6,111.7,193.9,105.6,198.7Z" fill="#c9817c"/> <path d="M84.2,154c.4-6.1,3.3-15.7,8.6-19C88.3,140.4,86.7,147.4,84.2,154Z" fill="#080605"/> <path d="M60.9,208c4.5-4.3,7.8-9.6,10.9-14.9-2.3,6-6.1,12.7-11.4,16.5C59.9,209,60.7,208.6,60.9,208Z" fill="#0d0808"/> <path d="M111.2,188.2a48.6,48.6,0,0,1,16.7-13.5c-5.2,4.5-11.5,7.8-15.8,13.4C111.9,188.2,111.7,189.1,111.2,188.2Z" fill="#160d0c"/> <path d="M120.9,148.9l1.3-1.1c-2,2.8-2.2,6.1-2.9,9.2s-.7,3.6-2,5C119.1,157.6,117.5,152.7,120.9,148.9Z" fill="#0d0908"/> <path d="M110.6,147.1c2.3-2.9,3.5-6.5,5.4-9.6-.8,5.8-5,10.5-8.1,15.1C108.4,150.7,109.8,149,110.6,147.1Z" fill="#110b0a"/> <path d="M105.6,198.7c2.7-2.8,11.3-11.3,13.8-14h.1c.1.2.1.3.2.4C115.1,189.7,111.3,195.2,105.6,198.7Z" fill="#1c1110"/> <path d="M113.5,154.8c.1,2.2-2,4.2-.6,6.6l-3,6.5h0c-.8-1.2.6-2.5,1-3.6.8-3.1-1-7.1,2.7-9.4Z" fill="#050303"/> <path d="M127.1,158.3a16.4,16.4,0,0,1-.2-6.6,13.6,13.6,0,0,1,.6,2.9c.3-.6.3-1.6,1-1.8-.9,3.2-.6,7.1-2.5,10.1C125.9,161.3,126.9,159.5,127.1,158.3Z" fill="#020202"/> <path d="M120.8,173.6a63.5,63.5,0,0,0,8-10.7h.2C127.4,167,124.8,171.1,120.8,173.6Z" fill="#1b1210"/> <path d="M141.8,132.1l-.9-2.7c1.1,3.3,5.4,4.4,6,7.7A48.1,48.1,0,0,1,141.8,132.1Z" fill="#150d0c"/> <path d="M61.4,233.2l-1.6,1.5,4.7-9.1C64.4,228.5,62.6,230.7,61.4,233.2Z" fill="#140d0c"/> <path d="M96.5,155.3c-.3-2.3,1-5.4,3.2-6.4C99,151.1,97.6,152.9,96.5,155.3Z" fill="#110d0c"/> <path d="M97.3,219.9c-.9-1-.1-2.6-1.3-3.4s-1.9-3.8-2.3-5.8C95.3,210.9,97.8,218.3,97.3,219.9Z" fill="#2c1f1d"/> <path d="M121.6,182.5c-.6.4-5.3,4.1-6,3.9,3.2-2.3,6.3-5.1,9.8-6.9C124.3,180.8,122.8,181.5,121.6,182.5Z" fill="#3d2824"/> <path d="M143.5,127.3c3.7-1.1,6,3.4,6.5,6.4h-.5C148.2,130.8,147.5,127.4,143.5,127.3Z" fill="#261817"/> <path d="M99.4,219.1l-.2.4a15.7,15.7,0,0,1-1.9-6.8C98.3,214.6,98.6,216.9,99.4,219.1Z" fill="#563836"/> <path d="M119.5,134.8a8.4,8.4,0,0,1-1.3,4.6c.3-2,.5-4.1.8-6Z" fill="#221a17"/> <path d="M146.4,139.9l-3-1.2c.1-.3,5.2.5,5.5.4S147.6,139.7,146.4,139.9Z" fill="#261d1b"/> <path d="M111.2,142c.5-2,.6-4.2,1.9-5.9h.3c-.7,2.1-1.1,4.4-2.1,6.3Z" fill="#2e201e"/> <path d="M85.4,194.8l-.6,1c-.3-.4-1-1-.9-1.1s-1-1.8-.2-2.7Z" fill="#2c1f1c"/> <path d="M139,135.5l-.7-2.1c1,1.6,2.3,3.2,3.2,4.9A5.7,5.7,0,0,1,139,135.5Z" fill="#342120"/> <path d="M129.6,164.1a22.1,22.1,0,0,1,1.1-5.7A13.8,13.8,0,0,1,129.6,164.1Z" fill="#362422"/> <path d="M141.5,128.5c.7-.8,1.1.5,1.7.3a3,3,0,0,1,1.2,2.5A19.2,19.2,0,0,0,141.5,128.5Z" fill="#271615"/> <path d="M130.2,132.2c-1.1.8-2.6-2.3-2.4-3.2Z" fill="#2b1a19"/> <path d="M96,154.6c-.3,1.6-.4,3.3-1.5,4.5h-.2c.6-1.6.7-3.7,1.6-5.1Z" fill="#382a26"/> <path d="M83.8,220.4l-.3.3-2.4-2.3C82.1,217.8,83.4,219.6,83.8,220.4Z" fill="#2b1d1a"/> <path d="M127.4,125.9c.2-1.2.5.3.8,0s1.9,1.4,1.2,1.8S128.1,126.5,127.4,125.9Z" fill="#261816"/> <path d="M222.7,19.5a.8.8,0,0,1,.5-1.2C239,12.6,251.8,1,267.5-4.7c-5.2,4.4-11.4,7.5-16.8,11.5l.3.2c.2.8-.6.8-1,1.1A185.3,185.3,0,0,1,222.7,19.5Z" fill="#ecaaa4"/> <path d="M222.7,19.5A402.3,402.3,0,0,0,260,2.6c-11.9,8.7-26.2,13.1-39.7,18.5Z" fill="#0a0605"/> <path d="M156.9,30.5c.6,3.2.9,7.2-1.3,9.8.5-2.1-.4-4.4-.1-6.4,2.8-.4,0-2.5,1.2-3.6Z" fill="#191211"/> <path d="M233.4,41.3c2.2,3.6.8,7.3-2.7,9.3a8.7,8.7,0,0,0,1.9-10Z" fill="#110b0b"/> <path d="M227.3,37.1l.5.8c-1.8-.3-3-2.2-4.6-3.2l3.3,1.9A.6.6,0,0,1,227.3,37.1Z" fill="#352423"/> <path d="M227.3,37.1a5.8,5.8,0,0,1-1.6-1.9c1.2.3,2.1,1.3,3.2,2Z" fill="#251514"/> <path d="M26,197.5C11.8,192,.8,177.2-2.8,162.5,3.4,177,12.6,188.9,26,197.5Z" fill="#030303"/> <path d="M180.8,157.1h-.3c7-4.6,14.6-8.7,22-12.8C195.7,148.9,188.5,153.7,180.8,157.1Z" fill="#0a0606"/> <path d="M196.7,154.2l-.3-.2a75.2,75.2,0,0,1,14.3-12.1A109.1,109.1,0,0,1,196.7,154.2Z" fill="#0d0808"/> <path d="M219,134.7h-.3c5.5-4.6,11.2-9.4,17.8-12.3C230.6,126.3,224.6,130.3,219,134.7Z" fill="#281514"/> <path d="M243.3,119.3a12.3,12.3,0,0,1-2.6-1.2,7.8,7.8,0,0,1,1.1,2c-1.5-.4-1.6-2.4-2.4-3.6a23.4,23.4,0,0,1,4.7,2.5Z" fill="#1d1312"/> <path d="M92.6,83.7c-1-5.1-.5-9.6,4.4-12.6-4,4-3.6,9-3.8,14.2Z" fill="#090606"/> <path d="M101,81c-.1,4.6,1.9,8.6,4,12.5C101.4,90.8,99.3,85.4,101,81Z" fill="#080505"/> <path d="M105.3,68.8c-2.5-.4-4.5,1-6.5,2.1,1.6-2.3,5.6-4.3,8-2.3Z" fill="#211715"/> <path d="M143.8,76.1c1.2-1.5,2.2-3.3,3.6-4.8C147.6,73.6,146.3,76.2,143.8,76.1Z" fill="#352422"/> <path d="M155.8,73.4c-1.3,1.6-1.4,5.2-4.5,4.9a23.4,23.4,0,0,0,4.4-5.1Z" fill="#533633"/> <path d="M143.6,74c.8-1.7,1.8-3.8,3.4-4.9C146.9,71.1,145.1,72.8,143.6,74Z" fill="#150e0d"/> <path d="M166.7,77.2l.4.4c-.5,1.5-1.3,2.9-2.9,3.3s-.7-.1-.3-.5A12.2,12.2,0,0,0,166.7,77.2Z" fill="#160e0d"/> <path d="M84.9,99.3c-.2,1.2-.5,2.5-1.7,3.1.9-1.7.8-3.5.8-5.4C84.9,97.6,84.6,98.5,84.9,99.3Z" fill="#1b1412"/> <path d="M146.3,77.9c-.6-.2-1.6.3-1.6-.9a7.2,7.2,0,0,0,4.7-1.2A4.5,4.5,0,0,1,146.3,77.9Z" fill="#291918"/> <path d="M71.8,109c.7-2,1.8-4.4,3.7-5.4-1.3,2-2.8,3.8-3.4,6.1Z" fill="#3b2c27"/> <path d="M160.4,79.3a5.8,5.8,0,0,1,2.4-4.3c.1.1.1.2.2.2s-1.6,3-2.2,4.6Z" fill="#291c1a"/> <path d="M142.1,72.8a5.1,5.1,0,0,1,3.6-4.2c.6,0,.1.4-.1.5S143.5,71.2,142.1,72.8Z" fill="#352422"/> <path d="M36.8,217.7a82.4,82.4,0,0,0-12.3,15.9c-1.2,3.1-2.7-1.4-4.7-1.6s-.4-1,0-1.5,1.5.4,2.3.6c-.9-1.1-1.9-1.9-.4-2.9,3.2-3.2,6.2-6.7,9.8-9.4C32.7,217.4,33.9,215,36.8,217.7Z" fill="#ecb7a5"/> <path d="M47.9,244.2H47c3.1-.6,5.4-2.5,8.1-3.9A9.8,9.8,0,0,1,47.9,244.2Z" fill="#211313"/> <path d="M46.3,241.6c-1.9-.2-4.4-.1-5.6-2,2.9,1.8,6,1.4,9.1,1.4C48.7,241.6,47.5,241.4,46.3,241.6Z" fill="#2b1615"/> <path d="M263.2,38.6c-7.2,2.6-14.3,5.2-21.9,6.3A182.8,182.8,0,0,1,263.2,38.6Z" fill="#150b0b"/> <path d="M239.3,44h0c1.6-1.7,4.8-2.6,7.2-2.6l-.3.3Z" fill="#261716"/> <path d="M54.5,126.3c.3-3,.1-5.4,1.1-7.7-.2,2.8-.4,7.9-.7,10.6Z" fill="#33201f"/> <path d="M55.4,124.9l.5-1.6c.1,1.5,1.3,6.9,1.3,8.4C55.8,129.9,56.1,127,55.4,124.9Z" fill="#1e1312"/> <path d="M160.6,112.8c-1.7-.5-2.5-3.2-2.9-4.9l.2-.2Z" fill="#291c1b"/> <path d="M201.8,32.6c-.2,4.7-4.3,10.7-8.7,11.1,4.3-3.2,8.3-6.3,8.3-12.3Z" fill="#150d0d"/> <path d="M195,40.8c-.2,1.4-5.6,4.5-7.1,3.8,2.4-1.2,5.1-1.9,7-4.1Z" fill="#281818"/> <path d="M166.7,67.8a11.1,11.1,0,0,1,1.4-3.4,24.3,24.3,0,0,0-.3,3.8c-.1.7,1,1.8.3,1.8S166.9,68.7,166.7,67.8Z" fill="#150e0d"/> <path d="M189.6,77l-.5.3c.6.5,3.8-1.2,4.6-1.3-1.8,1.3-4.1,3.2-6.5,1.6C188,77.5,188.6,76.4,189.6,77Z" fill="#261413"/> <path d="M151.1,67.6c-2,.6,1.8-3.5.7-5.1C153.5,64.5,152,66,151.1,67.6Z" fill="#1b1211"/> <path d="M172.7,65.7l.6-1.4c1.5.1,0,1.4.2,2.1s1.1,2.1.4,3.3Z" fill="#4a3532"/> <path d="M141.9,123.1l-2.9,2.2C136.6,122.3,139.4,123.2,141.9,123.1Z" fill="#ecb7a5"/> <path d="M118.8,100.2c-1,1.1-2.5.1-3.6.6l2.6-.9Z" fill="#020202"/> <path d="M31.2,255.3l.3.3-3.2,4.5Z" fill="#020202"/> <path d="M113.5,154.8c-4.1,5.6.1,7-3.7,13-1.2,1.1-1.8,2.7-2.8,4C109.4,166.5,108.1,157.9,113.5,154.8Z" fill="#c67e7a"/>
        <rect width="256" height="256" fill="#f15a24" opacity="0.3" style="isolation:isolate"/>
    </g>
</svg>